<?xml version="1.0" standalone="no"?>
<!DOCTYPE svg PUBLIC "-//W3C//DTD SVG 20010904//EN"
 "http://www.w3.org/TR/2001/REC-SVG-20010904/DTD/svg10.dtd">
<svg version="1.0" xmlns="http://www.w3.org/2000/svg"
 width="890.000000pt" height="890.000000pt" viewBox="0 0 890.000000 890.000000"
 preserveAspectRatio="xMidYMid meet">
<metadata>
Created by potrace 1.14, written by Peter Selinger 2001-2017
</metadata>
<g transform="translate(0.000000,890.000000) scale(0.100000,-0.100000)"
fill="#000000" stroke="none">
<path d="M4211 7625 c-1 -10 -44 -15 -113 -15 -16 0 -28 -5 -28 -11 0 -8 -4
-8 -15 1 -12 10 -18 10 -30 0 -12 -10 -15 -10 -15 1 0 12 -2 12 -9 1 -11 -19
-15 -19 -34 -3 -14 11 -18 11 -23 -3 -5 -13 -9 -14 -20 -5 -11 9 -14 8 -14 -6
0 -14 -3 -15 -14 -6 -11 9 -15 9 -19 -1 -4 -10 -6 -10 -6 1 -1 11 -4 11 -17 0
-13 -10 -17 -10 -25 2 -5 8 -9 9 -9 3 0 -7 -15 -12 -35 -12 -20 0 -41 -5 -49
-11 -9 -7 -16 -7 -24 1 -9 9 -12 7 -13 -7 0 -11 -3 -15 -5 -9 -3 8 -16 9 -39
4 -19 -4 -36 -5 -39 -2 -4 3 -6 0 -6 -8 0 -10 -4 -10 -17 1 -14 12 -16 12 -11
-2 5 -13 1 -15 -20 -13 -14 1 -31 0 -37 -4 -5 -4 -18 -7 -27 -8 -37 -3 -39 -4
-32 -16 6 -9 3 -9 -9 0 -9 8 -22 10 -29 6 -14 -9 -28 -12 -65 -16 -12 -1 -19
-6 -16 -11 3 -4 -1 -8 -8 -6 -37 5 -70 -2 -63 -13 4 -7 3 -8 -5 -4 -6 4 -25 0
-43 -8 -34 -18 -51 -21 -28 -6 8 5 10 10 4 10 -6 0 -21 -8 -32 -19 -12 -10
-33 -17 -47 -16 -14 2 -25 0 -25 -4 0 -4 -9 -8 -20 -9 -44 -4 -50 -6 -50 -14
0 -5 -4 -6 -10 -3 -5 3 -10 2 -10 -4 0 -5 -11 -8 -25 -7 -13 2 -22 -1 -19 -5
3 -5 -1 -10 -8 -11 -14 -1 -28 -4 -40 -8 -5 -1 -12 -4 -18 -5 -5 -1 -13 -4
-17 -5 -5 -1 -11 -2 -15 -1 -5 0 -8 -4 -8 -10 0 -6 -6 -9 -14 -6 -8 3 -17 -2
-21 -11 -5 -14 -7 -14 -15 -2 -8 13 -10 12 -10 -2 0 -11 -5 -15 -15 -12 -8 4
-15 1 -15 -6 0 -10 -4 -9 -16 0 -12 11 -15 11 -12 0 3 -14 -3 -16 -43 -19 -12
-1 -17 -5 -13 -13 5 -8 0 -9 -14 -6 -12 4 -20 2 -16 -3 3 -5 0 -10 -5 -10 -14
-2 -29 -6 -36 -9 -3 -1 -9 -3 -15 -4 -5 0 -18 -8 -28 -16 -10 -8 -25 -16 -33
-18 -8 -2 -20 -9 -28 -15 -7 -7 -19 -12 -25 -13 -40 -4 -39 -3 -25 -21 10 -14
8 -13 -10 2 -14 11 -21 14 -17 8 4 -8 1 -13 -8 -13 -9 0 -16 -4 -16 -9 0 -6
-9 -8 -20 -6 -11 2 -19 1 -16 -3 2 -4 -2 -13 -10 -20 -9 -8 -14 -9 -14 -2 0 6
-5 8 -10 5 -6 -4 -8 -11 -4 -16 3 -5 2 -8 -3 -7 -15 4 -73 -21 -73 -32 0 -6
-4 -8 -10 -5 -5 3 -10 1 -10 -6 0 -6 -8 -9 -20 -6 -11 3 -18 0 -17 -7 1 -6 -6
-10 -16 -10 -13 2 -15 -1 -7 -11 8 -9 4 -12 -14 -10 -15 2 -27 -3 -30 -12 -4
-9 -13 -13 -22 -9 -8 3 -12 2 -9 -3 3 -5 -4 -12 -15 -16 -11 -4 -18 -11 -14
-16 3 -5 2 -9 -3 -8 -27 5 -45 -2 -40 -15 4 -10 1 -13 -9 -9 -7 3 -14 0 -14
-7 0 -7 -6 -10 -14 -7 -8 3 -17 -1 -20 -10 -4 -9 -9 -13 -12 -10 -3 3 -17 -5
-31 -19 -13 -13 -29 -24 -34 -24 -6 0 -17 -6 -24 -12 -33 -29 -45 -38 -45 -33
0 3 -27 -12 -59 -35 -33 -22 -63 -40 -66 -40 -3 0 -11 -5 -18 -10 -44 -37 -61
-50 -66 -50 -3 0 -20 -13 -38 -28 -17 -15 -44 -36 -58 -47 -14 -11 -43 -36
-65 -56 -21 -21 -41 -34 -44 -31 -3 3 -6 0 -6 -5 0 -6 -16 -27 -35 -47 -19
-20 -34 -38 -32 -40 1 -3 -8 -16 -20 -30 -13 -15 -23 -30 -23 -36 0 -5 -9 -16
-21 -24 -12 -8 -18 -19 -14 -25 3 -7 3 -11 -2 -10 -22 4 -34 -3 -47 -28 -8
-16 -18 -28 -23 -28 -4 0 -7 -3 -5 -8 1 -4 -9 -13 -23 -19 -14 -6 -25 -19 -25
-30 0 -10 -9 -23 -20 -30 -11 -7 -20 -19 -20 -26 0 -7 -3 -11 -7 -9 -10 5 -43
-30 -35 -37 3 -3 0 -6 -6 -6 -7 0 -12 -7 -12 -15 0 -8 -14 -24 -30 -37 -19
-14 -28 -28 -25 -37 3 -9 3 -12 -1 -8 -10 9 -45 -33 -37 -46 3 -5 1 -7 -5 -3
-6 3 -16 -7 -24 -24 -11 -27 -20 -34 -39 -32 -3 1 -5 -12 -4 -28 1 -19 -2 -27
-11 -23 -6 2 -15 -1 -20 -8 -5 -8 -3 -10 7 -4 8 5 7 0 -4 -12 -9 -11 -14 -23
-10 -27 4 -4 -1 -4 -11 0 -13 5 -17 4 -12 -4 4 -7 -4 -23 -17 -36 -18 -18 -22
-27 -13 -36 8 -9 7 -11 -4 -8 -8 2 -14 -3 -15 -10 0 -7 -7 -17 -15 -22 -8 -5
-10 -10 -5 -10 6 0 3 -6 -6 -13 -16 -12 -19 -18 -19 -37 0 -5 -8 -10 -17 -10
-15 0 -16 -2 -3 -10 10 -6 11 -10 3 -10 -7 0 -13 -6 -13 -13 0 -8 -9 -22 -20
-32 -11 -10 -18 -20 -15 -23 2 -3 -5 -16 -15 -30 -11 -13 -20 -30 -20 -38 0
-7 -3 -14 -7 -16 -13 -5 -83 -149 -78 -158 3 -4 -2 -13 -10 -20 -8 -7 -15 -16
-15 -20 0 -4 -7 -24 -15 -44 -8 -20 -15 -38 -15 -41 0 -3 -7 -22 -16 -43 -16
-36 -24 -68 -27 -104 -1 -9 -4 -15 -8 -12 -9 5 -21 -25 -13 -37 3 -5 1 -9 -5
-9 -6 0 -8 -7 -5 -15 4 -8 1 -15 -6 -15 -6 0 -9 -4 -6 -8 3 -5 -1 -21 -9 -36
-10 -18 -10 -24 -2 -19 8 4 7 1 -1 -10 -8 -9 -11 -21 -7 -27 3 -5 -2 -10 -12
-10 -15 0 -16 -2 -3 -10 13 -9 13 -10 0 -10 -13 0 -13 -1 0 -10 12 -8 12 -10
-5 -11 -11 0 -15 -3 -8 -5 7 -3 9 -12 6 -20 -3 -7 -9 -11 -14 -8 -5 3 -4 -7 1
-21 7 -17 7 -24 0 -20 -9 6 -15 -16 -11 -39 1 -4 -4 -14 -10 -22 -6 -8 -8 -14
-5 -14 4 0 1 -10 -5 -22 -10 -20 -10 -22 2 -13 8 6 6 2 -4 -7 -11 -10 -14 -18
-8 -18 9 0 9 -5 1 -20 -6 -11 -12 -39 -14 -63 -2 -23 -4 -46 -5 -50 -1 -5 -5
-6 -9 -3 -5 3 -7 -11 -5 -31 1 -20 -2 -42 -8 -49 -7 -8 -7 -14 1 -19 7 -5 8
-11 1 -19 -5 -6 -8 -24 -7 -39 2 -15 0 -27 -3 -27 -4 0 -6 -16 -5 -35 1 -21
-3 -35 -10 -35 -6 0 -4 -5 4 -10 13 -9 13 -10 0 -10 -13 0 -13 -1 0 -10 9 -6
10 -10 3 -10 -12 0 -10 -30 3 -52 4 -6 3 -8 -4 -4 -6 4 -11 -1 -11 -11 -6
-270 -6 -341 -1 -406 3 -47 1 -79 -5 -81 -5 -3 -5 -5 2 -5 7 -1 10 -7 7 -15
-3 -8 -1 -17 5 -20 7 -4 7 -15 1 -31 -6 -15 -6 -27 1 -30 5 -4 7 -11 4 -16 -4
-5 0 -9 7 -9 10 0 10 -2 -1 -9 -7 -5 -11 -13 -7 -19 3 -6 8 -42 11 -82 2 -39
7 -75 10 -80 4 -6 0 -10 -7 -10 -9 0 -9 -3 2 -10 8 -5 12 -10 9 -10 -4 0 -3
-16 1 -35 5 -21 4 -35 -2 -35 -5 0 -6 -6 -1 -12 4 -7 8 -26 9 -43 1 -16 5 -38
9 -48 4 -10 5 -21 1 -24 -3 -3 -1 -12 5 -19 6 -8 9 -21 5 -29 -3 -8 -1 -15 4
-15 5 0 9 -8 9 -17 1 -19 8 -65 12 -73 1 -3 3 -12 3 -20 1 -8 8 -14 16 -12 11
3 11 0 0 -12 -12 -15 -7 -21 15 -16 6 1 5 -4 -2 -11 -12 -12 -7 -42 6 -35 4 3
8 -5 8 -16 1 -12 7 -24 13 -28 7 -4 11 -10 11 -14 -3 -20 0 -26 12 -20 8 5 8
2 -2 -9 -9 -11 -10 -17 -2 -17 6 0 11 -7 11 -15 0 -8 5 -15 10 -15 6 0 10 -8
10 -18 0 -10 9 -24 20 -32 22 -16 28 -35 8 -25 -7 3 -3 -2 9 -11 13 -9 23 -23
23 -31 0 -8 5 -11 12 -7 6 4 8 3 4 -4 -3 -6 1 -18 10 -26 8 -9 13 -16 10 -16
-3 0 2 -9 11 -19 46 -49 72 -81 68 -81 -3 0 3 -8 13 -18 9 -11 20 -17 25 -15
4 3 7 1 6 -4 -1 -4 -1 -15 0 -23 1 -13 2 -13 11 0 8 13 10 12 10 -2 0 -10 4
-18 8 -18 5 0 15 -11 22 -25 7 -13 16 -23 19 -22 4 1 19 -10 33 -25 14 -15 28
-25 31 -21 4 3 7 -2 7 -12 0 -10 3 -15 7 -12 3 4 12 -2 20 -13 8 -11 21 -20
29 -20 8 0 13 -3 11 -7 -5 -8 17 -34 28 -33 21 1 25 -1 20 -10 -3 -5 1 -10 9
-10 9 0 16 -7 16 -16 0 -9 6 -14 13 -11 6 2 20 -5 29 -15 10 -12 22 -17 30
-12 7 4 10 4 6 -1 -8 -9 34 -45 52 -45 6 0 9 -4 6 -9 -3 -5 2 -8 12 -7 9 0 16
-4 15 -9 -1 -6 8 -12 20 -12 12 -1 27 -10 34 -19 7 -10 13 -14 13 -10 0 4 7 0
16 -8 8 -9 20 -14 25 -11 5 4 9 1 9 -6 0 -7 3 -9 7 -6 3 4 16 -1 27 -12 12
-11 37 -24 56 -29 19 -5 34 -14 33 -20 -1 -5 5 -9 15 -7 9 1 20 -2 23 -7 3 -5
12 -11 20 -12 8 -2 28 -9 44 -16 17 -7 36 -12 44 -11 7 1 10 -2 7 -7 -3 -6 1
-12 8 -15 8 -3 17 -1 20 6 3 9 5 9 5 0 1 -7 7 -13 15 -13 8 0 16 -4 18 -10 2
-5 15 -11 30 -12 16 -1 28 -6 28 -10 0 -4 7 -8 15 -8 9 0 27 -7 40 -16 18 -12
25 -13 25 -4 0 10 5 9 18 -2 9 -9 32 -19 50 -23 17 -3 32 -10 32 -14 0 -5 14
-7 30 -5 17 2 30 -1 30 -7 0 -6 7 -9 15 -5 8 3 15 1 15 -5 0 -6 6 -9 12 -7 7
3 34 -3 60 -13 35 -12 49 -14 59 -5 9 8 10 8 5 -1 -4 -7 -4 -13 1 -14 4 0 15
-2 23 -4 8 -2 31 -7 50 -11 19 -3 40 -10 46 -15 6 -5 16 -4 24 4 9 9 11 9 6 0
-4 -7 1 -12 11 -13 54 -2 73 -6 73 -12 0 -5 12 -8 26 -8 14 0 34 -5 45 -10 14
-8 19 -7 19 1 0 8 4 8 12 1 7 -5 33 -13 58 -17 25 -3 56 -8 70 -11 14 -3 33
-5 43 -5 9 0 17 -6 17 -12 0 -7 4 -6 10 3 5 8 10 10 10 5 0 -6 12 -11 28 -11
26 -2 97 -11 97 -14 0 0 20 -3 45 -6 79 -8 101 -11 107 -18 3 -3 12 -1 20 5 7
6 13 7 13 2 0 -5 6 -10 13 -10 29 -1 145 -13 182 -18 22 -4 65 -8 96 -9 31 -2
62 -6 69 -11 7 -4 16 -2 21 6 7 11 9 11 9 1 0 -8 13 -12 33 -12 44 1 282 -16
282 -20 0 -1 33 -2 72 -3 40 -1 73 -6 73 -11 0 -5 6 -3 13 3 8 6 17 8 20 5 6
-6 55 -9 282 -18 61 -3 110 -5 110 -6 0 -1 96 -3 214 -5 117 -2 215 -6 218 -8
2 -3 20 -1 39 3 18 4 34 5 34 1 0 -3 14 -6 30 -6 17 0 30 4 30 10 0 5 5 4 11
-2 6 -6 25 -7 49 -3 22 4 42 5 45 2 6 -7 135 -9 135 -2 0 3 109 6 243 7 133 1
292 5 352 8 61 4 121 7 135 8 14 0 28 5 32 11 5 8 8 7 8 -1 0 -12 30 -10 52 3
7 5 8 3 3 -6 -5 -9 -4 -11 3 -6 11 7 111 17 194 20 21 0 38 4 38 7 0 3 17 6
38 6 53 1 127 9 138 15 5 4 24 5 42 4 17 -1 32 1 32 6 0 4 7 4 17 1 12 -5 14
-3 8 8 -6 11 -5 12 5 2 8 -7 19 -9 29 -4 9 5 24 7 33 6 10 -2 20 1 23 5 3 5
17 7 30 4 14 -2 25 0 25 5 0 5 11 8 25 6 14 -1 25 1 25 4 0 3 17 7 37 8 20 1
40 8 44 15 6 9 9 9 9 1 0 -8 9 -9 28 -4 15 4 33 6 40 4 6 -3 12 0 12 5 0 5 12
10 26 10 15 0 30 6 35 13 7 12 9 12 9 -1 0 -10 3 -11 11 -3 6 6 18 9 25 6 8
-3 14 0 14 7 0 6 5 8 10 5 6 -4 18 -1 27 7 14 11 16 11 8 -2 -8 -13 -6 -13 8
-2 9 8 21 11 27 7 5 -3 10 -1 10 6 0 7 3 10 6 6 3 -3 29 2 57 10 51 15 74 21
90 22 5 1 6 4 4 8 -3 5 5 8 16 9 29 2 60 8 72 16 6 3 26 9 45 13 19 4 40 12
47 17 7 5 16 7 22 4 5 -4 17 1 25 10 9 8 16 13 16 9 0 -3 13 1 29 10 17 8 38
16 48 18 10 2 28 8 39 15 12 6 24 8 28 5 3 -3 6 -2 6 4 0 8 21 18 47 23 2 0
19 9 39 20 19 11 41 17 47 13 7 -4 5 2 -3 12 -14 17 -14 18 7 7 17 -9 22 -9
27 4 3 8 10 12 16 9 5 -3 10 -1 10 5 0 6 5 8 10 5 6 -3 10 -1 10 6 0 7 3 10 6
6 3 -3 16 3 27 14 11 10 26 18 33 17 7 -2 20 6 29 17 9 11 14 14 10 8 -3 -7
-2 -13 3 -13 6 0 13 7 16 16 3 9 13 14 20 11 8 -3 17 1 20 9 3 8 12 14 21 14
8 0 15 5 15 11 0 5 5 7 10 4 6 -3 10 -1 10 5 0 7 7 9 17 6 10 -4 14 -4 11 0
-11 10 21 36 34 28 10 -6 10 -5 1 7 -13 16 -1 39 21 39 5 0 16 7 25 15 52 47
61 54 61 49 0 -13 154 161 155 175 1 12 27 53 46 72 10 10 19 26 19 34 0 8 5
15 11 15 6 0 9 7 5 15 -3 8 -1 15 4 15 6 0 10 8 10 18 0 10 7 27 15 38 8 12
11 24 8 28 -3 3 -1 6 6 6 7 0 10 4 6 9 -3 5 0 15 7 23 13 14 20 33 21 56 0 6
4 12 9 12 4 0 7 3 6 8 -1 8 6 29 29 80 8 19 12 36 9 39 -3 3 2 12 10 20 8 8
12 19 9 24 -4 5 -2 9 3 9 5 0 9 6 10 13 1 25 12 61 19 66 8 6 15 25 17 53 1 9
8 23 15 32 9 11 10 16 2 16 -7 0 -8 6 -2 18 28 55 56 147 52 170 -1 6 3 12 10
12 6 0 9 8 6 20 -3 11 -2 20 2 20 4 0 8 6 9 13 2 21 13 71 19 87 12 31 27 111
24 128 -1 6 3 12 8 12 6 0 7 7 4 17 -5 12 -3 14 7 8 10 -6 11 -4 4 6 -13 21
-14 39 -2 39 6 0 8 7 4 15 -3 8 -2 15 3 15 5 0 7 11 6 25 -2 14 2 25 8 25 7 0
5 5 -3 10 -8 5 -10 10 -5 10 6 0 11 15 12 33 4 43 7 60 16 74 4 6 2 15 -4 19
-7 4 -8 9 -1 13 6 3 13 40 16 81 3 41 8 87 10 102 2 16 0 31 -5 34 -6 3 -5 11
2 20 6 8 9 17 6 21 -4 3 -2 12 4 20 9 9 8 13 0 13 -9 0 -9 5 -1 20 8 15 8 20
-2 20 -9 0 -9 3 2 10 13 9 13 10 0 10 -9 0 -11 3 -5 8 12 8 13 91 2 110 -5 6
-4 12 1 12 9 0 7 82 -2 107 -3 7 0 13 7 13 7 0 8 3 2 8 -5 4 -10 33 -10 64 0
32 -4 58 -9 58 -5 0 -4 6 2 13 9 10 7 19 -5 37 -9 13 -11 20 -5 16 16 -10 15
3 -2 36 -13 24 -12 26 2 20 15 -5 15 -4 0 20 -11 16 -14 29 -8 33 6 4 3 17 -8
33 -13 20 -14 24 -2 17 13 -8 13 -7 1 8 -10 12 -10 17 -2 17 8 0 7 6 -4 16
-11 11 -13 20 -6 28 7 8 7 16 0 23 -5 5 -11 24 -12 41 -1 18 -6 32 -11 32 -4
0 -6 6 -3 14 3 8 -1 20 -9 27 -10 8 -11 15 -4 24 6 7 6 15 0 21 -6 6 -11 22
-12 37 -2 19 -7 26 -17 22 -10 -4 -11 -2 -3 8 6 7 7 18 2 26 -4 8 -6 21 -2 29
3 10 1 13 -6 8 -11 -7 -15 7 -15 57 0 9 -3 17 -7 17 -9 0 -20 24 -27 60 -2 13
-10 28 -16 32 -7 4 -8 8 -3 8 5 0 3 6 -3 13 -6 8 -9 16 -6 19 3 2 -9 31 -25
63 -17 32 -30 65 -30 72 0 7 -5 13 -11 13 -5 0 -7 5 -4 10 3 6 1 10 -5 10 -7
0 -10 6 -7 13 2 6 -3 18 -12 25 -9 8 -10 10 -2 7 9 -5 8 1 -4 19 -10 14 -21
26 -25 26 -4 0 -7 8 -6 18 0 9 -4 16 -10 15 -7 -1 -10 6 -7 16 3 11 -2 21 -11
24 -9 4 -16 18 -16 32 0 16 -6 25 -15 25 -8 0 -14 3 -14 8 3 17 -2 32 -16 45
-8 8 -16 21 -17 28 -2 7 -13 24 -26 37 -12 13 -20 27 -17 32 3 5 -4 12 -16 15
-15 5 -18 10 -9 15 8 5 7 9 -5 14 -9 3 -13 10 -10 16 3 5 -1 10 -10 10 -9 0
-13 5 -10 10 3 6 1 10 -5 10 -6 0 -8 5 -5 10 3 6 -1 13 -9 16 -9 3 -16 13 -16
21 0 8 -5 11 -12 7 -7 -5 -9 -2 -6 8 4 8 -2 21 -12 28 -11 8 -17 17 -14 22 3
4 -3 8 -12 8 -10 0 -14 3 -11 6 4 4 -3 15 -15 25 -11 11 -17 19 -12 19 5 0 1
5 -8 11 -10 5 -18 15 -18 20 0 6 -14 24 -30 39 -17 15 -30 33 -30 39 0 6 -5
10 -12 8 -6 -1 -20 15 -31 35 -11 21 -23 36 -26 34 -3 -1 -16 8 -28 21 -12 13
-20 23 -16 23 3 0 -6 12 -20 26 -16 15 -31 23 -38 18 -8 -5 -11 -2 -7 7 5 15
-26 51 -36 42 -3 -4 -6 1 -6 10 0 10 -6 17 -14 17 -14 0 -31 28 -27 45 2 5 0
7 -4 3 -7 -7 -28 8 -77 55 -16 15 -34 24 -40 21 -7 -5 -8 -2 -3 5 7 13 -32 48
-47 43 -5 -1 -8 5 -8 14 0 8 -4 12 -10 9 -5 -3 -10 1 -10 9 0 15 -12 21 -33
17 -5 -1 -6 3 -2 9 3 5 1 10 -5 10 -6 0 -8 5 -4 13 6 8 3 8 -9 -1 -14 -12 -16
-11 -12 6 2 14 -1 19 -13 18 -9 -2 -31 12 -48 31 -17 18 -35 33 -38 33 -4 0
-14 7 -23 15 -8 8 -20 12 -26 8 -7 -3 -9 -3 -5 2 9 10 -17 35 -37 35 -9 0 -13
5 -10 10 3 6 -3 10 -15 10 -12 0 -18 5 -15 10 3 6 -1 10 -9 10 -9 0 -16 5 -16
10 0 6 -6 10 -13 10 -7 0 -20 9 -30 20 -18 22 -43 28 -31 8 4 -8 3 -10 -2 -5
-5 5 -9 14 -9 20 -1 7 -6 11 -13 9 -7 -1 -15 5 -18 13 -4 8 -12 15 -20 15 -8
0 -14 5 -14 11 0 6 -7 9 -15 5 -9 -3 -15 0 -15 9 0 8 -3 14 -7 14 -22 -4 -33
2 -27 13 5 7 2 9 -9 5 -9 -3 -18 1 -21 10 -4 10 -14 13 -27 10 -12 -3 -18 -3
-15 0 6 7 -24 37 -38 38 -17 1 -66 27 -66 36 0 7 -49 24 -62 21 -5 -1 -8 3 -8
9 0 5 -4 7 -10 4 -5 -3 -10 1 -10 10 0 9 -5 13 -10 10 -6 -4 -16 -2 -23 3 -23
19 -88 52 -101 52 -8 0 -16 5 -18 11 -2 6 -15 12 -30 12 -14 1 -24 5 -21 10 4
6 -12 11 -29 8 -5 0 -8 3 -8 9 0 5 -9 10 -20 10 -11 0 -20 6 -20 13 0 8 -4 7
-10 -3 -6 -9 -10 -10 -10 -3 0 11 -37 29 -52 25 -5 -1 -8 3 -8 9 0 5 -4 7 -10
4 -5 -3 -10 -1 -10 5 0 6 -4 9 -9 5 -5 -3 -13 0 -17 6 -5 9 -11 6 -22 -7 -13
-18 -14 -18 -7 4 3 12 3 21 -2 20 -4 -1 -18 3 -29 10 -12 6 -24 8 -28 5 -3 -3
-6 -1 -6 5 0 7 -5 12 -11 12 -5 0 -7 -4 -4 -10 3 -6 -1 -7 -9 -4 -9 3 -16 10
-16 15 0 5 -9 9 -19 9 -11 0 -23 5 -26 10 -4 6 -11 8 -16 5 -5 -4 -9 0 -10 7
0 7 -4 4 -9 -7 -7 -16 -9 -16 -9 -4 -1 19 -31 35 -31 16 0 -7 -5 -5 -10 5 -6
10 -18 14 -30 11 -12 -3 -20 0 -20 6 0 7 -4 9 -10 6 -5 -3 -10 -2 -10 4 0 6
-7 8 -15 5 -8 -4 -15 -1 -15 7 0 7 -3 9 -7 6 -3 -4 -13 -1 -21 6 -13 9 -14 9
-8 0 5 -9 2 -11 -8 -7 -9 3 -16 11 -16 17 0 8 -3 8 -11 0 -9 -9 -15 -8 -26 3
-8 8 -26 12 -39 10 -14 -3 -22 -1 -19 5 4 5 -8 9 -24 9 -17 0 -31 4 -31 9 0 4
-16 8 -36 8 -19 -1 -38 3 -42 8 -7 10 -35 16 -79 17 -13 0 -23 3 -23 7 0 4 -8
7 -17 8 -10 1 -32 2 -50 4 -18 1 -30 6 -26 12 3 5 0 7 -8 5 -8 -3 -23 -1 -34
5 -19 10 -19 9 -5 -9 14 -18 14 -18 -4 -4 -10 8 -33 16 -50 17 -17 1 -42 4
-56 8 -14 4 -42 7 -62 8 -21 1 -38 4 -38 7 0 3 -17 7 -37 8 -21 2 -46 5 -57 8
-12 4 -16 2 -12 -5 10 -16 0 -13 -19 5 -12 13 -19 14 -30 4 -12 -10 -15 -10
-15 1 0 11 -2 11 -10 -1 -8 -12 -10 -12 -10 -1 0 8 -3 12 -6 8 -3 -3 -17 -2
-30 3 -16 7 -24 6 -24 -1 0 -8 -4 -8 -14 0 -11 9 -15 9 -19 -1 -3 -7 -6 -8 -6
-2 -1 6 -16 9 -36 8 -22 -2 -35 1 -35 9 0 8 -3 8 -9 -1 -4 -8 -12 -14 -16 -14
-4 0 -12 6 -16 14 -7 11 -9 11 -9 -1 0 -9 -4 -10 -12 -4 -15 11 -58 11 -75 0
-7 -5 -13 -4 -13 2 0 9 -17 10 -35 0 -9 -5 -32 -4 -37 1 -9 8 -76 6 -87 -4
-10 -7 -13 -7 -8 0 4 7 -7 11 -33 11 -26 0 -37 -4 -33 -11 5 -8 3 -8 -8 0 -16
11 -58 12 -76 1 -6 -4 -15 -3 -18 3 -5 8 -11 7 -21 -1 -11 -9 -14 -9 -14 0 0
8 -5 9 -19 1 -14 -7 -21 -6 -24 3 -3 6 -6 7 -6 2z"/>
<path d="M1009 6013 c-13 -16 -12 -17 4 -4 16 13 21 21 13 21 -2 0 -10 -8 -17
-17z"/>
</g>
</svg>
